<svg xmlns="http://www.w3.org/2000/svg" width="201" height="200" viewBox="0 0 201 200" fill="none">
<g opacity="0.25">
<path d="M134.793 138.748C125.472 129.427 112.831 124.191 99.6504 124.191C86.4695 124.191 75.5322 127.724 66.2119 137.044" stroke="black" stroke-width="5"/>
<circle cx="72.2234" cy="108.704" r="8.70435" fill="black"/>
<circle cx="128.777" cy="108.704" r="8.70435" fill="black"/>
<path d="M170.997 42.7825L170.998 42.7834C172.256 44.0419 172.969 45.7401 172.999 47.5H128V2.50097C129.803 2.53074 131.5 3.24677 132.756 4.50214L170.997 42.7825ZM34.875 2.5H110.5V53.125C110.5 59.662 115.838 65 122.375 65H173V190.625C173 194.44 169.94 197.5 166.125 197.5H34.875C31.0604 197.5 28 194.44 28 190.625V9.375C28 5.5604 31.0604 2.5 34.875 2.5Z" stroke="black" stroke-width="5"/>
</g>
</svg>