<svg xmlns="http://www.w3.org/2000/svg" width="18" height="18" viewBox="0 0 18 18" fill="none">
<path d="M12.7549 11.2549H11.9649L11.6849 10.9849C12.6988 9.80891 13.256 8.30758 13.2549 6.75489C13.2549 5.46931 12.8737 4.2126 12.1594 3.14368C11.4452 2.07476 10.43 1.24164 9.24233 0.749669C8.05461 0.257699 6.74767 0.128977 5.4868 0.379781C4.22592 0.630585 3.06773 1.24965 2.15869 2.15869C1.24965 3.06773 0.630585 4.22592 0.379781 5.4868C0.128977 6.74767 0.257699 8.05461 0.749669 9.24233C1.24164 10.43 2.07476 11.4452 3.14368 12.1594C4.2126 12.8737 5.46931 13.2549 6.75489 13.2549C8.36489 13.2549 9.84488 12.6649 10.9849 11.6849L11.2549 11.9649V12.7549L16.2549 17.7449L17.7449 16.2549L12.7549 11.2549ZM6.75489 11.2549C4.26489 11.2549 2.25489 9.24489 2.25489 6.75489C2.25489 4.26489 4.26489 2.25489 6.75489 2.25489C9.24489 2.25489 11.2549 4.26489 11.2549 6.75489C11.2549 9.24489 9.24489 11.2549 6.75489 11.2549Z" fill="black" fill-opacity="0.4"/>
</svg>