<svg xmlns="http://www.w3.org/2000/svg" width="28" height="28" viewBox="0 0 28 28" fill="none">
<path d="M2.04304 4.0758C1.76804 3.0458 2.82604 2.1658 3.78904 2.6248L25.286 12.8738C26.236 13.3258 26.236 14.6778 25.286 15.1298L3.79004 25.3798C2.82704 25.8378 1.76904 24.9578 2.04404 23.9278L4.70004 14.0018L2.04304 4.0758ZM6.05104 14.7518L3.63304 23.7918L24.168 14.0018L3.63304 4.2118L6.05104 13.2518H17.25C17.449 13.2518 17.6397 13.3308 17.7804 13.4715C17.921 13.6121 18 13.8029 18 14.0018C18 14.2007 17.921 14.3915 17.7804 14.5321C17.6397 14.6728 17.449 14.7518 17.25 14.7518H6.05104Z" fill="black" fill-opacity="0.4"/>
</svg>